# xmcd
#
# Track frame offsets:
#	150
#	19455
#	37352
#	54237
#	71120
#	90317
#	110352
#	133765
#	152967
#	186155
#	209447
#	219540
#	238392
#	255210
#	272195
#
# Disc length: 3976 seconds
#
# Revision: 1
# Processed by: cddbd v1.4b42PL1 Copyright (c) Steve Scherf et al.
# Submitted via: audiograbber 1.80
#
DISCID=e50f860f
DTITLE=Brendon Power - Harmonica Nights
DYEAR=1900
DGENRE=
TTITLE0=I Know Him So Well
TTITLE1=Baby Can I Hold You
TTITLE2=Stand By Me
TTITLE3=Cavatina
TTITLE4=That's What Friends Are For
TTITLE5=I Just Called to Say I Love You
TTITLE6=Hepburn Days
TTITLE7=Shenandoah
TTITLE8=Dawn To Dusk
TTITLE9=I'll be right here waiting for You
TTITLE10=What A Wonderful World
TTITLE11=The Music Of The Night
TTITLE12=Three Irish Tunes
TTITLE13=How Sweet it is to be Loved By You
TTITLE14=Albatross
EXTD=
EXTT0=
EXTT1=
EXTT2=
EXTT3=
EXTT4=
EXTT5=
EXTT6=
EXTT7=
EXTT8=
EXTT9=
EXTT10=
EXTT11=
EXTT12=
EXTT13=
EXTT14=
PLAYORDER=
